# xmcd
#
# Track frame offsets:
#	150
#	12200
#	28935
#	46725
#	61477
#	85280
#	99420
#	123175
#	134807
#	155897
#
# Disc length: 2237 seconds
#
# Revision: 0
# Processed by: cddbd v1.5.2PL0 Copyright (c) Steve Scherf et al.
# Submitted via: dBpowerAMP V4.0
#
DISCID=8508bb0a
DTITLE=R C Hamilton - A Better Man Than Me
DYEAR=1900
DGENRE=Country
TTITLE0=Sometimes It's Hot
TTITLE1=Cowboys and Rainbows
TTITLE2=Watonka
TTITLE3=Cedar Creek
TTITLE4=Old Memories
TTITLE5=Cowboy's Life
TTITLE6=Better Man Than Me
TTITLE7=Old Hand At Heartache
TTITLE8=Can't Live With Your Cheatin'
TTITLE9=Red Corvette
EXTD=
EXTT0=
EXTT1=
EXTT2=
EXTT3=
EXTT4=
EXTT5=
EXTT6=
EXTT7=
EXTT8=
EXTT9=
PLAYORDER=
